<?xml version="1.0" encoding="UTF-8"?><svg id="Layer_1" xmlns="http://www.w3.org/2000/svg" viewBox="0 0 2000 2000"><defs><style>.cls-1{fill:#fff;font-family:Poppins-SemiBold, Poppins;font-size:218.41px;font-weight:600;}.cls-2{fill:#292227;}.cls-3{fill:#dd8241;}</style></defs><rect class="cls-2" width="2000" height="2000"/><text class="cls-1" transform="translate(572.46 1601.78)"><tspan x="0" y="0">SSIMON</tspan></text><path class="cls-3" d="m804.62,700.21c69.99,70.93,139.41,142.42,209.19,213.55,18.94,19.31,37.46,39.03,13.66,66.11-17.5,19.91-38.9,14.68-68.29-15.05-23.9-24.18-47.49-48.66-71.25-72.98-38.68-39.6-227.32-232.92-314.59-322.33l-36.79,36.79c-6.56,6.56-12.53,13.49-17.92,20.71,94.11,97.54,337.4,347.39,403.7,412.94,44.17,43.68,115.44,41.58,159.44.22,44.97-42.27,34.44-135.11-8.75-181.05h0c-.19-.17-.37-.33-.53-.49-67.23-68.75-134.99-136.99-201.69-206.25-76.5-79.44-77.1-194.65-2.48-268.03,76.26-74.99,191.86-72.1,270.38,7.34,55.92,56.58,297.09,303.86,376.62,385.19,11.75-59.83-5.55-124.22-51.9-170.58l-329.52-329.52c-73.96-73.96-193.87-73.96-267.83,0l-240.4,240.4c64.12,65.5,176.51,180.57,178.94,183.03Z"/><path class="cls-3" d="m1196.71,771.3c-69.99-70.93-139.41-142.42-209.19-213.55-18.94-19.31-37.46-39.03-13.66-66.11,17.5-19.91,38.9-14.68,68.29,15.05,23.9,24.18,47.49,48.66,71.25,72.98,39.24,40.18,232.83,238.58,318.33,326.16l31.71-31.71c8.33-8.33,15.71-17.24,22.16-26.61-91.9-95.3-339.61-349.72-406.6-415.95-44.17-43.68-115.44-41.58-159.44-.22-44.97,42.27-50.79,116.13-7.6,162.06l16.89,19.48h0c67.23,68.75,134.99,136.99,201.69,206.25,76.5,79.44,77.1,194.65,2.48,268.03-76.26,74.99-191.86,72.1-270.38-7.34-55.8-56.46-296.08-302.82-376.12-384.67-15.15,62.13,1.53,130.44,50.06,178.97l329.52,329.52c73.96,73.96,193.87,73.96,267.83,0l245.49-245.49c-63.38-64.73-180.21-184.35-182.69-186.86Z"/></svg>